<svg xmlns="http://www.w3.org/2000/svg" viewBox="60 0 160 300" width="50px">
  <path fill="#fff" d="M176.1 149.5h-63.3a8.5 8.5 0 0 1-8.5-8.5v-38.4c0-4.7 3.8-8.5 8.5-8.5h63.3c4.7 0 8.5 3.8 8.5 8.5V141c0 4.7-3.8 8.5-8.5 8.5z"/>
  <path fill="#476B73" d="M167.8 76.2l19-7.8L67.1 78.8l17.3 115.7 120.1-9.5V77.8l-36.7-1.6zm1.6 40.8c-1.2 1.5-3 2.6-5 2.7l-1 .1-36.4 2.9v-.1c-5.4.1-10-4-10.5-9.4a10.25 10.25 0 0 1 14.3-10.3c.9-6.2 6-11.2 12.5-11.8 6.9-.5 12.9 4 14.5 10.5 1.2-.6 2.5-1.1 4-1.2 5.4-.5 10.1 3.5 10.5 8.9.3 2.9-.9 5.7-2.9 7.7z"/>
  <path fill="#3A8F9B" d="M67.1 78.8v105.1l-4.9 30.6 26.7 12.8-4.5-32.8V87.6l18.8-6"/>
  <path fill="#476B73" d="M167.8 76.2v4.6l36.7-3"/>
  <path fill="#3A8F9B" d="M186.8 68.4V77l-19-.8"/>
  <path fill="#476B73" d="M103.2 86v-4.4l-18.8 6"/>
  <path fill="#4DBECF" d="M204.5 185V77.8L84.4 87.6v106.9l4.4 32.8 120.1-10-4.4-32.3zm-32.2-61.5c-1.2 1.5-3 2.6-5.1 2.8l-1 .1-37.1 3v-.1c-5.5.1-10.2-4.1-10.7-9.7a10.47 10.47 0 0 1 14.5-10.5c1-6.4 6.1-12.9 12.8-13.5 8.3-.8 13.2 5.6 14.8 12.2 1.2-.7 2.6-1.1 4.1-1.3a9.9 9.9 0 0 1 7.7 17z"/>
</svg>
